name rise36.2859peak64.2979fall75.1499.mot
datacolumns 19
datarows 12
range 8.36163100000000 8.37999000000000
endheader
time	ground_force1_vx	ground_force1_vy	ground_force1_vz	ground_force1_px	ground_force1_py	ground_force1_pz	ground_force2_vx	ground_force2_vy	ground_force2_vz	ground_force2_px	ground_force2_py	ground_force2_pz	ground_torque1_x	ground_torque1_y	ground_torque1_z	ground_torque2_x	ground_torque2_y	ground_torque2_z	
8.36163100000000	-43.01941200000000	834.43979300000001	61.49949500000000	0.15866400000000	0.00000000000000	0.11001700000000	0.00000000000000	0.00000000000000	0.00000000000000	0.00000000000000	0.00000000000000	0.00000000000000	0.00000000000000	28.53452400000000	0.00000000000000	0.00000000000000	0.00000000000000	0.00000000000000	
8.36329800000000	-42.98584400000000	833.03778699999998	61.40747700000000	0.15821400000000	0.00000000000000	0.10989600000000	0.00000000000000	0.00000000000000	0.00000000000000	0.00000000000000	0.00000000000000	0.00000000000000	0.00000000000000	28.38520200000000	0.00000000000000	0.00000000000000	0.00000000000000	0.00000000000000	
8.36497700000000	-42.96675600000000	831.50881500000003	61.29651500000000	0.15775800000000	0.00000000000000	0.10977200000000	0.00000000000000	0.00000000000000	0.00000000000000	0.00000000000000	0.00000000000000	0.00000000000000	0.00000000000000	28.23423400000000	0.00000000000000	0.00000000000000	0.00000000000000	0.00000000000000	
8.36663100000000	-42.96319700000000	829.85167500000000	61.16615600000000	0.15729700000000	0.00000000000000	0.10964500000000	0.00000000000000	0.00000000000000	0.00000000000000	0.00000000000000	0.00000000000000	0.00000000000000	0.00000000000000	28.08180600000000	0.00000000000000	0.00000000000000	0.00000000000000	0.00000000000000	
8.36829800000000	-42.97616800000000	828.06522500000005	61.01596400000000	0.15683000000000	0.00000000000000	0.10951500000000	0.00000000000000	0.00000000000000	0.00000000000000	0.00000000000000	0.00000000000000	0.00000000000000	0.00000000000000	27.92809900000000	0.00000000000000	0.00000000000000	0.00000000000000	0.00000000000000	
8.36998000000000	-43.00661600000000	826.14838299999997	60.84552100000000	0.15635700000000	0.00000000000000	0.10938200000000	0.00000000000000	0.00000000000000	0.00000000000000	0.00000000000000	0.00000000000000	0.00000000000000	0.00000000000000	27.77328700000000	0.00000000000000	0.00000000000000	0.00000000000000	0.00000000000000	
8.37163800000000	-43.05543000000000	824.10011599999996	60.65442500000000	0.15587600000000	0.00000000000000	0.10924700000000	0.00000000000000	0.00000000000000	0.00000000000000	0.00000000000000	0.00000000000000	0.00000000000000	0.00000000000000	27.61753900000000	0.00000000000000	0.00000000000000	0.00000000000000	0.00000000000000	
8.37330300000000	-43.12343500000000	821.91944300000000	60.44229700000000	0.15538900000000	0.00000000000000	0.10910800000000	-1.28898600000000	3.27715400000000	0.63087600000000	0.00000000000000	0.00000000000000	0.00000000000000	0.00000000000000	27.46101300000000	0.00000000000000	0.00000000000000	0.13442400000000	0.00000000000000	
8.37497600000000	-43.21138600000000	819.60543099999995	60.20877900000000	0.15489500000000	0.00000000000000	0.10896600000000	-2.04021200000000	6.60364100000000	1.06025000000000	0.00000000000000	0.00000000000000	0.00000000000000	0.00000000000000	27.30385900000000	0.00000000000000	0.00000000000000	0.24601800000000	0.00000000000000	
8.37663000000000	-43.31996900000000	817.15718700000002	59.95353800000000	0.15439400000000	0.00000000000000	0.10882000000000	-2.88483600000000	10.66313900000000	1.55642100000000	0.00000000000000	0.00000000000000	0.00000000000000	0.00000000000000	27.14621900000000	0.00000000000000	0.00000000000000	0.37870300000000	0.00000000000000	
8.37830100000000	-43.44979000000000	814.57385999999997	59.67626600000000	0.15388600000000	0.00000000000000	0.10867200000000	-3.79563200000000	15.42397600000000	2.10740500000000	0.00000000000000	0.00000000000000	0.00000000000000	0.00000000000000	26.98822500000000	0.00000000000000	0.00000000000000	0.53035600000000	0.00000000000000	
8.37999000000000	-43.60137300000000	811.85463400000003	59.37668200000000	0.15337000000000	0.00000000000000	0.10852000000000	-4.73894600000000	20.82350100000000	2.69736500000000	0.00000000000000	0.00000000000000	0.00000000000000	0.00000000000000	26.82999700000000	0.00000000000000	0.00000000000000	0.69780500000000	0.00000000000000	
